<?xml version="1.0" encoding="UTF-8" standalone="no"?>
<!-- Created with Inkscape (http://www.inkscape.org/) -->

<svg
   width="71.172913mm"
   height="76.382584mm"
   viewBox="0 0 71.172913 76.382584"
   version="1.1"
   id="svg5"
   xml:space="preserve"
   inkscape:version="1.2.2 (b0a8486541, 2022-12-01)"
   sodipodi:docname="paper.svg"
   xmlns:inkscape="http://www.inkscape.org/namespaces/inkscape"
   xmlns:sodipodi="http://sodipodi.sourceforge.net/DTD/sodipodi-0.dtd"
   xmlns="http://www.w3.org/2000/svg"
   xmlns:svg="http://www.w3.org/2000/svg"><sodipodi:namedview
     id="namedview7"
     pagecolor="#ffffff"
     bordercolor="#000000"
     borderopacity="0.25"
     inkscape:showpageshadow="2"
     inkscape:pageopacity="0.0"
     inkscape:pagecheckerboard="0"
     inkscape:deskcolor="#d1d1d1"
     inkscape:document-units="mm"
     showgrid="false"
     inkscape:zoom="0.79909512"
     inkscape:cx="234.6404"
     inkscape:cy="661.99879"
     inkscape:window-width="1916"
     inkscape:window-height="1041"
     inkscape:window-x="0"
     inkscape:window-y="18"
     inkscape:window-maximized="1"
     inkscape:current-layer="layer1" /><defs
     id="defs2" /><g
     inkscape:label="Layer 1"
     inkscape:groupmode="layer"
     id="layer1"
     transform="translate(-115.46721,-198.1591)"><path
       style="fill:#ffffff;fill-opacity:1;stroke-width:0.264583"
       d="m 150.39221,274.5373 c -3.41974,-0.0269 -6.93208,-0.0869 -7.80521,-0.13323 -0.87312,-0.0464 -3.25437,-0.26884 -5.29166,-0.49442 -2.0373,-0.22558 -5.25198,-0.71097 -7.14375,-1.07864 -1.89178,-0.36768 -4.57068,-1.03 -5.95313,-1.47184 -1.38245,-0.44184 -3.3115,-1.20431 -4.28677,-1.6944 -0.97528,-0.49008 -2.20175,-1.26729 -2.7255,-1.72715 -0.52374,-0.45985 -1.12477,-1.1697 -1.33562,-1.57743 -0.31094,-0.6013 -0.38336,-2.3149 -0.38336,-9.07128 0,-8.32994 0,-8.32994 0.67508,-8.41366 0.67508,-0.0837 0.67508,-0.0837 0,-0.99502 -0.67508,-0.91129 -0.67508,-0.91129 -0.67508,-9.45885 0,-8.54755 0,-8.54755 0.65349,-8.54755 0.65348,0 0.65348,0 0,-0.96297 -0.65349,-0.96296 -0.65349,-0.96296 -0.65349,-9.37513 0,-8.41217 0,-8.41217 0.67508,-8.49589 0.67508,-0.0837 0.67508,-0.0837 0,-0.99502 -0.4494,-0.60666 -0.67508,-1.25231 -0.67508,-1.93137 0,-0.56104 0.16797,-1.34158 0.37325,-1.73453 0.20529,-0.39296 0.71131,-1.02753 1.12448,-1.41016 0.41318,-0.38262 1.25612,-1.00849 1.87322,-1.39081 0.61709,-0.38231 2.0432,-1.06106 3.16912,-1.50833 1.12593,-0.44726 3.47853,-1.15016 5.22801,-1.562 1.74949,-0.41184 4.3715,-0.93885 5.82671,-1.17114 1.45521,-0.23229 3.65787,-0.54407 4.89479,-0.69285 1.23693,-0.14878 5.76554,-0.34327 10.06358,-0.43219 5.09068,-0.10532 9.33307,-0.0509 12.17083,0.15623 2.39592,0.17486 5.60637,0.49859 7.13434,0.71942 1.52797,0.22083 4.17597,0.69391 5.88443,1.05129 1.70847,0.35739 4.03019,0.95555 5.15938,1.32925 1.12919,0.3737 2.79171,1.03802 3.69449,1.47626 0.90279,0.43824 2.1263,1.21183 2.71892,1.71909 0.59262,0.50726 1.25296,1.26162 1.46743,1.67635 0.21446,0.41473 0.38994,1.16007 0.38994,1.65631 0,0.5261 -0.27577,1.30863 -0.66146,1.87697 -0.3638,0.53609 -0.66146,1.02896 -0.66146,1.09526 0,0.0663 0.29766,0.12054 0.66146,0.12054 0.66146,0 0.66146,0 0.66146,8.42974 0,8.42975 0,8.42975 -0.65349,9.39271 -0.65348,0.96297 -0.65348,0.96297 0,0.96297 0.65349,0 0.65349,0 0.65349,8.37727 0,8.37727 0,8.37727 -0.67262,9.525 -0.67261,1.14772 -0.67261,1.14772 0,1.14772 0.67262,0 0.67262,0 0.67262,8.34752 0,6.6712 -0.075,8.49099 -0.37326,9.06198 -0.20529,0.39295 -0.7113,1.03096 -1.12448,1.41778 -0.41317,0.38683 -1.53894,1.13313 -2.50171,1.65844 -0.96276,0.52532 -2.80324,1.31097 -4.08994,1.74591 -1.2867,0.43493 -3.71367,1.08015 -5.39326,1.43381 -1.6796,0.35366 -4.42303,0.82653 -6.09652,1.05082 -1.67349,0.22429 -4.70958,0.52893 -6.74688,0.67698 -2.03729,0.14806 -6.50213,0.24717 -9.92187,0.22024 z m 2.24896,-1.93187 c 7.49858,-0.0724 10.01549,-0.19261 13.22916,-0.63195 2.18282,-0.29841 5.15938,-0.7873 6.61459,-1.08642 1.45521,-0.29912 3.65575,-0.8511 4.8901,-1.22663 1.23435,-0.37552 3.01532,-1.05746 3.95772,-1.51542 0.9424,-0.45795 2.10537,-1.22357 2.58438,-1.70136 0.87092,-0.86872 0.87092,-0.86872 0.87092,-7.47448 0,-3.63317 -0.0554,-6.60576 -0.1231,-6.60576 -0.0677,0 -0.67209,0.34816 -1.34308,0.77368 -0.67099,0.42553 -2.00197,1.08674 -2.95773,1.46936 -0.95577,0.38262 -3.14041,1.04699 -4.85477,1.47637 -1.71436,0.42939 -4.46541,1.00844 -6.11344,1.28679 -1.64803,0.27835 -4.60376,0.66481 -6.56829,0.8588 -2.14342,0.21165 -6.90496,0.35172 -11.90625,0.35025 -4.83492,-0.001 -9.72305,-0.14422 -11.64167,-0.34009 -1.81901,-0.18571 -4.73604,-0.57571 -6.48229,-0.86667 -1.74625,-0.29097 -4.38975,-0.81888 -5.87445,-1.17314 -1.4847,-0.35426 -3.63293,-1.00409 -4.77385,-1.44408 -1.14092,-0.43998 -2.63897,-1.15801 -3.32901,-1.59562 -0.69003,-0.43761 -1.31001,-0.79565 -1.37771,-0.79565 -0.0677,0 -0.12311,2.98572 -0.12311,6.63493 0,6.63494 0,6.63494 0.72761,7.36008 0.40018,0.39882 1.26857,1.04142 1.92976,1.42799 0.66119,0.38657 2.46137,1.11534 4.0004,1.61949 1.53904,0.50415 4.33181,1.21033 6.20618,1.56929 1.87436,0.35895 4.41996,0.78926 5.65689,0.95624 1.23692,0.16698 3.43958,0.40705 4.89479,0.53349 1.45521,0.12644 6.81302,0.18967 11.90625,0.14051 z m 10.1163,-4.36702 c -0.81127,0 -1.40986,-0.17971 -1.9106,-0.57359 -0.40106,-0.31548 -0.89678,-0.97467 -1.10161,-1.46489 -0.28713,-0.6872 -0.30862,-1.12817 -0.0939,-1.92576 0.15321,-0.56896 0.58542,-1.27585 0.96048,-1.57087 0.37505,-0.29502 1.07498,-0.61014 1.5554,-0.70027 0.57561,-0.10798 1.20201,-0.008 1.83689,0.29331 0.52989,0.25145 1.13677,0.79239 1.34864,1.20211 0.21187,0.40971 0.38522,1.239 0.38522,1.84286 0,0.89585 -0.16557,1.2635 -0.89958,1.99751 -0.75443,0.75443 -1.09021,0.89959 -2.08099,0.89959 z m -0.0756,-1.85209 c 0.33559,0 0.75241,-0.17139 0.92627,-0.38087 0.17385,-0.20948 0.27773,-0.71331 0.23083,-1.11961 -0.0619,-0.53637 -0.29216,-0.81109 -0.84056,-1.00286 -0.64926,-0.22704 -0.8257,-0.17718 -1.25677,0.35517 -0.27581,0.34062 -0.50147,0.7762 -0.50147,0.96796 0,0.19177 0.18709,0.53577 0.41577,0.76444 0.22867,0.22868 0.69034,0.41577 1.02593,0.41577 z m 8.22907,0.52917 c -0.93679,0 -1.37593,-0.16098 -2.02768,-0.74332 -0.66732,-0.59625 -0.85699,-1.00432 -0.95867,-2.06254 -0.11007,-1.14547 -0.0337,-1.42987 0.58016,-2.15936 0.38881,-0.46207 1.1268,-0.95606 1.63998,-1.09776 0.65175,-0.17996 1.22202,-0.16235 1.89155,0.0584 0.5774,0.19038 1.19904,0.67348 1.56348,1.21505 0.33275,0.49447 0.60499,1.24452 0.60499,1.66679 0,0.42227 -0.17251,1.10135 -0.38335,1.50908 -0.21085,0.40773 -0.68291,0.9376 -1.04903,1.17749 -0.3703,0.24263 -1.19625,0.43616 -1.86143,0.43616 z m 0.11881,-1.5875 c 0.0808,0 0.41146,-0.18534 0.73488,-0.41188 0.33223,-0.2327 0.58803,-0.69044 0.58803,-1.05223 0,-0.39108 -0.25748,-0.80907 -0.66145,-1.07376 -0.61274,-0.40148 -0.71018,-0.40148 -1.32292,0 -0.40397,0.26469 -0.66146,0.68268 -0.66146,1.07376 0,0.36179 0.25581,0.81953 0.58804,1.05223 0.32342,0.22654 0.65412,0.41188 0.73488,0.41188 z m 8.10323,0 c -0.60114,0 -1.19872,-0.23547 -1.72815,-0.68096 -0.4451,-0.37452 -0.94213,-1.12439 -1.10451,-1.66636 -0.23699,-0.79102 -0.21498,-1.17749 0.11159,-1.95908 0.22738,-0.54419 0.79315,-1.20922 1.28264,-1.50765 0.4817,-0.29368 1.15548,-0.53442 1.49729,-0.53496 0.34181,-5.3e-4 1.03167,0.19366 1.53301,0.43156 0.50135,0.23791 1.08489,0.76778 1.29676,1.17749 0.21187,0.40971 0.38522,1.11394 0.38522,1.56496 0,0.45102 -0.18061,1.16929 -0.40135,1.59616 -0.22075,0.42687 -0.75062,0.95674 -1.17749,1.17749 -0.42687,0.22074 -1.18963,0.40135 -1.69501,0.40135 z m 0.21764,-1.85208 c 0.33559,0 0.75241,-0.1714 0.92627,-0.38088 0.17385,-0.20948 0.27773,-0.7133 0.23083,-1.11961 -0.0608,-0.52644 -0.29205,-0.81102 -0.80486,-0.9903 -0.56912,-0.19896 -0.83191,-0.14991 -1.25677,0.23458 -0.29544,0.26737 -0.53718,0.69731 -0.53718,0.9554 0,0.25809 0.1871,0.65636 0.41578,0.88503 0.22867,0.22868 0.69034,0.41578 1.02593,0.41578 z m -26.8417,-6.75312 c 5.29714,-0.0501 9.65947,-0.22907 11.97054,-0.49115 1.99989,-0.2268 5.42091,-0.77243 7.60226,-1.21252 2.18136,-0.44009 4.95147,-1.14159 6.15582,-1.55888 1.20434,-0.4173 2.79921,-1.06758 3.54415,-1.44507 0.74494,-0.3775 1.72613,-1.05804 2.18041,-1.51232 0.45429,-0.45429 0.82598,-0.94399 0.82598,-1.08823 0,-0.14423 -0.32742,-0.0313 -0.7276,0.25101 -0.40019,0.28228 -1.34822,0.82592 -2.10675,1.20807 -0.75853,0.38215 -2.30634,0.99755 -3.43958,1.36755 -1.13325,0.37 -3.32667,0.9644 -4.87427,1.32088 -1.5476,0.35648 -4.65194,0.88415 -6.89852,1.17261 -2.24658,0.28846 -6.33817,0.66036 -9.09242,0.82645 -2.94006,0.17729 -7.08339,0.22912 -10.03482,0.12553 -2.76489,-0.097 -6.27724,-0.29425 -7.8052,-0.43825 -1.52797,-0.14399 -4.34041,-0.48776 -6.24988,-0.76393 -1.90946,-0.27617 -4.76696,-0.81863 -6.35,-1.20547 -1.58304,-0.38685 -3.77765,-1.04844 -4.87692,-1.4702 -1.09927,-0.42177 -2.67685,-1.17523 -3.50573,-1.67435 -0.82888,-0.49913 -1.50706,-0.81319 -1.50706,-0.69791 0,0.11528 0.23054,0.50268 0.51231,0.86089 0.28176,0.35821 1.23718,1.03764 2.12313,1.50985 0.88596,0.47221 2.59977,1.19285 3.80848,1.60142 1.2087,0.40857 3.31915,0.99237 4.68988,1.29733 1.37074,0.30497 3.56381,0.72946 4.87349,0.94332 1.30969,0.21386 3.75047,0.51556 5.42396,0.67045 1.67349,0.15488 3.57849,0.32663 4.23334,0.38166 0.65484,0.055 4.94109,0.0646 9.525,0.0212 z m -2.11667,-2.81213 c 2.54661,0.0193 6.35661,-0.085 8.46667,-0.2317 2.11005,-0.1467 5.32473,-0.45094 7.14375,-0.6761 1.81901,-0.22516 4.44948,-0.63819 5.8455,-0.91785 1.39601,-0.27966 3.59866,-0.81313 4.89479,-1.1855 1.29612,-0.37237 3.28637,-1.11038 4.42279,-1.64003 1.17363,-0.54699 2.40232,-1.34581 2.84427,-1.84916 0.77806,-0.88616 0.77806,-0.88616 0.77806,-7.50955 0,-6.62339 0,-6.62339 -0.7276,-6.11014 -0.40019,0.28228 -1.32292,0.81201 -2.05052,1.17715 -0.72761,0.36515 -2.45401,1.02376 -3.83646,1.46359 -1.38245,0.43982 -3.67593,1.05008 -5.09662,1.35613 -1.42069,0.30605 -4.45554,0.79688 -6.74411,1.09073 -2.28857,0.29385 -6.54352,0.65658 -9.45546,0.80607 -2.91194,0.14948 -7.08037,0.20162 -9.26319,0.11585 -2.18281,-0.0858 -5.45703,-0.27901 -7.27604,-0.4294 -1.81901,-0.1504 -4.84674,-0.50389 -6.7283,-0.78553 -1.88156,-0.28163 -4.4414,-0.75239 -5.68854,-1.04612 -1.24714,-0.29373 -3.21085,-0.83732 -4.36379,-1.20797 -1.15294,-0.37065 -2.70075,-0.97841 -3.43958,-1.35058 -0.73883,-0.37217 -1.67075,-0.90764 -2.07093,-1.18992 -0.72761,-0.51325 -0.72761,-0.51325 -0.75689,5.52403 -0.0161,3.32051 -0.0112,6.33495 0.0108,6.69875 0.0246,0.40642 0.48426,1.07636 1.19205,1.73754 0.74718,0.69797 1.92871,1.38404 3.36261,1.95252 1.21587,0.48205 3.81787,1.28246 5.78223,1.77869 1.96435,0.49624 5.41716,1.13688 7.67292,1.42365 2.25575,0.28677 5.53011,0.6223 7.27636,0.74562 1.74625,0.12332 5.25859,0.23997 7.80521,0.25923 z m 12.26314,-4.46802 c -0.26905,-0.006 -0.85204,-0.16841 -1.29553,-0.36159 -0.44349,-0.19318 -0.9902,-0.635 -1.21491,-0.98183 -0.22472,-0.34683 -0.48896,-0.95702 -0.5872,-1.35598 -0.10497,-0.42626 -0.0263,-1.08983 0.19066,-1.60922 0.20312,-0.48612 0.69744,-1.14196 1.0985,-1.45744 0.50074,-0.39388 1.09933,-0.57359 1.9106,-0.57359 0.99078,0 1.32656,0.14515 2.08099,0.89959 0.73401,0.734 0.89958,1.10166 0.89958,1.99751 0,0.60386 -0.17335,1.43315 -0.38522,1.84286 -0.21187,0.40972 -0.79541,0.93958 -1.29676,1.17749 -0.50134,0.2379 -1.13166,0.42789 -1.40071,0.4222 z m -0.0749,-1.84173 c 0.15508,0 0.51227,-0.12325 0.79375,-0.27389 0.31653,-0.16941 0.51177,-0.55297 0.51177,-1.00542 0,-0.40234 -0.14288,-0.8744 -0.3175,-1.04902 -0.17463,-0.17463 -0.58284,-0.3175 -0.90714,-0.3175 -0.32431,0 -0.77675,0.18709 -1.00542,0.41577 -0.22868,0.22867 -0.41577,0.58586 -0.41577,0.79375 0,0.20788 0.23812,0.6161 0.52916,0.90714 0.29104,0.29104 0.65606,0.52917 0.81115,0.52917 z m 8.67989,0.43977 c -0.86046,0.0874 -1.35536,-0.0176 -1.93257,-0.40981 -0.42675,-0.28999 -0.92855,-0.80231 -1.11511,-1.1385 -0.18655,-0.33619 -0.34341,-1.00412 -0.34856,-1.48429 -0.005,-0.48017 0.17123,-1.22229 0.39197,-1.64916 0.22075,-0.42688 0.75062,-0.95675 1.17749,-1.17749 0.42687,-0.22074 1.20051,-0.40135 1.7192,-0.40135 0.70489,0 1.19266,0.22873 1.93137,0.90571 0.89168,0.81717 0.9883,1.03652 0.9883,2.24387 0,1.14626 -0.1187,1.45685 -0.82771,2.16587 -0.60638,0.60638 -1.13701,0.85911 -1.98438,0.94515 z m -0.18337,-1.77073 c 0.24426,0.004 0.63122,-0.17906 0.85989,-0.40773 0.22868,-0.22868 0.41578,-0.63689 0.41578,-0.90714 0,-0.27026 -0.1871,-0.67847 -0.41578,-0.90715 -0.22867,-0.22867 -0.68111,-0.41577 -1.00541,-0.41577 -0.32431,0 -0.73252,0.14287 -0.90715,0.3175 -0.17462,0.17462 -0.3175,0.64496 -0.3175,1.04518 0,0.41391 0.19966,0.84398 0.46302,0.99738 0.25466,0.14832 0.66288,0.2733 0.90715,0.27773 z m 8.09718,0.26227 c -0.18657,-0.006 -0.71719,-0.17477 -1.17915,-0.37571 -0.46196,-0.20094 -1.02577,-0.64899 -1.25292,-0.99566 -0.22715,-0.34667 -0.48639,-0.99726 -0.57608,-1.44575 -0.1051,-0.52549 2.6e-4,-1.15974 0.29641,-1.78376 0.25272,-0.53258 0.79472,-1.14167 1.20443,-1.35354 0.40971,-0.21188 1.239,-0.38522 1.84286,-0.38522 0.89585,0 1.26351,0.16557 1.99752,0.89958 0.75443,0.75443 0.89958,1.09021 0.89958,2.08098 0,0.81127 -0.1797,1.40986 -0.57359,1.91061 -0.31547,0.40106 -0.96649,0.89337 -1.44671,1.09401 -0.48021,0.20065 -1.02577,0.36016 -1.21235,0.35446 z m 0.17104,-1.84173 c 0.20789,0 0.56508,-0.1871 0.79375,-0.41577 0.22868,-0.22868 0.41578,-0.69818 0.41578,-1.04333 0,-0.34857 -0.26143,-0.81067 -0.58804,-1.03944 -0.32342,-0.22653 -0.68061,-0.41187 -0.79375,-0.41187 -0.11314,0 -0.44384,0.23812 -0.73488,0.52916 -0.29104,0.29104 -0.52916,0.70776 -0.52916,0.92604 0,0.21828 0.23812,0.635 0.52916,0.92605 0.29104,0.29104 0.69926,0.52916 0.90714,0.52916 z m -26.30714,-6.76239 c 3.56526,-0.0609 8.14917,-0.28966 10.18646,-0.50838 2.03729,-0.21873 5.16988,-0.64463 6.9613,-0.94645 1.79143,-0.30183 4.50493,-0.89915 6.03,-1.32738 1.52508,-0.42824 3.56349,-1.1371 4.52981,-1.57525 0.96632,-0.43815 2.15051,-1.09682 2.63155,-1.46373 0.48104,-0.3669 0.99745,-0.89662 1.14759,-1.17716 0.21274,-0.39751 -0.15918,-0.27696 -1.68542,0.54628 -1.07712,0.58099 -3.00907,1.41149 -4.29322,1.84557 -1.28416,0.43407 -3.70904,1.07858 -5.38863,1.43224 -1.6796,0.35367 -4.42303,0.82654 -6.09652,1.05082 -1.67349,0.22429 -4.70958,0.52893 -6.74688,0.67699 -2.03729,0.14805 -6.20447,0.26919 -9.26041,0.26919 -3.05594,0 -7.22313,-0.12114 -9.26042,-0.26919 -2.03729,-0.14806 -5.07338,-0.4527 -6.74687,-0.67699 -1.67349,-0.22428 -4.41693,-0.69715 -6.09652,-1.05082 -1.67959,-0.35366 -4.10448,-0.99817 -5.38863,-1.43224 -1.28416,-0.43408 -3.21611,-1.26458 -4.29322,-1.84557 -1.34488,-0.72542 -1.88161,-0.9139 -1.71327,-0.60167 0.13482,0.25007 0.52395,0.70964 0.86474,1.02126 0.34078,0.31162 1.3501,0.93152 2.24293,1.37756 0.89283,0.44605 2.83051,1.16961 4.30595,1.60794 1.47545,0.43831 3.9001,1.02995 5.38813,1.31473 1.48803,0.28479 4.25332,0.71263 6.1451,0.95077 1.89177,0.23814 4.92786,0.5363 6.74687,0.66258 1.81901,0.12629 6.22432,0.17979 9.78958,0.1189 z m -2.64583,-3.06593 c 3.71078,0.0201 8.41375,-0.088 10.45104,-0.24019 2.03729,-0.15223 4.89479,-0.451 6.35,-0.66394 1.45521,-0.21294 3.89599,-0.63705 5.42396,-0.94248 1.52797,-0.30542 3.82091,-0.89595 5.09543,-1.31228 1.27452,-0.41633 2.99373,-1.08757 3.82048,-1.49165 0.82674,-0.40407 1.89731,-1.10592 2.37905,-1.55967 0.87587,-0.82499 0.87587,-0.82499 0.87587,-7.47448 0,-3.65722 -0.0554,-6.64949 -0.1231,-6.64949 -0.0677,0 -0.68768,0.35805 -1.37771,0.79565 -0.69004,0.43761 -2.15269,1.14178 -3.25034,1.56483 -1.09765,0.42305 -3.54354,1.13225 -5.43531,1.57602 -1.89177,0.44376 -4.57067,0.98401 -5.95312,1.20055 -1.38245,0.21655 -4.00182,0.5478 -5.82083,0.73612 -1.9715,0.2041 -6.72693,0.34239 -11.77396,0.34239 -5.02879,0 -9.80959,-0.13861 -11.77396,-0.34137 -1.81901,-0.18775 -4.73604,-0.5725 -6.48229,-0.85499 -1.74625,-0.28249 -4.54422,-0.85626 -6.21771,-1.27506 -1.67349,-0.41879 -3.96482,-1.14574 -5.09184,-1.61544 -1.12702,-0.4697 -2.47176,-1.14081 -2.98831,-1.49135 -0.51655,-0.35054 -0.99343,-0.63735 -1.05972,-0.63735 -0.0663,0 -0.12055,2.98572 -0.12055,6.63494 0,6.63494 0,6.63494 0.72761,7.36007 0.40018,0.39883 1.26857,1.04142 1.92976,1.42799 0.66119,0.38657 2.46137,1.11534 4.0004,1.61949 1.53904,0.50415 4.33181,1.21033 6.20618,1.56929 1.87436,0.35896 4.41996,0.79025 5.65689,0.95843 1.23692,0.16818 3.49911,0.40065 5.02708,0.51659 1.52797,0.11594 5.81422,0.22726 9.525,0.24738 z m 12.36526,-4.45918 c -0.81127,0 -1.40986,-0.1797 -1.9106,-0.57359 -0.40106,-0.31547 -0.89678,-0.97467 -1.10161,-1.46488 -0.28713,-0.6872 -0.30862,-1.12817 -0.0939,-1.92577 0.15321,-0.56896 0.58542,-1.27585 0.96048,-1.57087 0.37505,-0.29502 1.07498,-0.61014 1.5554,-0.70026 0.57561,-0.10799 1.20201,-0.008 1.83689,0.2933 0.52989,0.25145 1.13677,0.7924 1.34864,1.20211 0.21187,0.40971 0.38522,1.239 0.38522,1.84286 0,0.89585 -0.16557,1.26351 -0.89958,1.99752 -0.75443,0.75443 -1.09021,0.89958 -2.08099,0.89958 z m -0.0756,-1.85208 c 0.33559,0 0.75241,-0.1714 0.92627,-0.38088 0.17385,-0.20948 0.27773,-0.7133 0.23083,-1.1196 -0.0619,-0.53637 -0.29216,-0.81109 -0.84056,-1.00286 -0.64926,-0.22704 -0.8257,-0.17718 -1.25677,0.35517 -0.27581,0.34061 -0.50147,0.77619 -0.50147,0.96796 0,0.19176 0.18709,0.53576 0.41577,0.76443 0.22867,0.22868 0.69034,0.41578 1.02593,0.41578 z m 8.19844,0.52917 c -1.04195,0 -1.36169,-0.1353 -2.12598,-0.89959 -0.75788,-0.75788 -0.89958,-1.08809 -0.89958,-2.09636 0,-0.89856 0.16907,-1.39771 0.67846,-2.0031 0.37316,-0.44347 1.09834,-0.92224 1.61152,-1.06393 0.65175,-0.17996 1.22202,-0.16235 1.89155,0.0584 0.5774,0.19038 1.19904,0.67348 1.56348,1.21506 0.33275,0.49446 0.60499,1.24451 0.60499,1.66678 0,0.42227 -0.17251,1.10136 -0.38335,1.50908 -0.21085,0.40773 -0.68291,0.9376 -1.04903,1.17749 -0.3765,0.24669 -1.19843,0.43617 -1.89206,0.43617 z m 0.14944,-1.5875 c 0.0808,0 0.41146,-0.18535 0.73488,-0.41188 0.33223,-0.2327 0.58803,-0.69045 0.58803,-1.05224 0,-0.39108 -0.25748,-0.80907 -0.66145,-1.07376 -0.61274,-0.40148 -0.71018,-0.40148 -1.32292,0 -0.40397,0.26469 -0.66146,0.68268 -0.66146,1.07376 0,0.36179 0.25581,0.81954 0.58804,1.05224 0.32342,0.22653 0.65412,0.41188 0.73488,0.41188 z m 8.28137,-0.0168 c -0.40741,-0.009 -0.99219,-0.11837 -1.29952,-0.24254 -0.30732,-0.12417 -0.8051,-0.53893 -1.10618,-0.92169 -0.30108,-0.38276 -0.62193,-1.03519 -0.71301,-1.44985 -0.0969,-0.44112 -0.001,-1.14709 0.23037,-1.70157 0.21778,-0.52121 0.79008,-1.18794 1.27177,-1.48163 0.4817,-0.29368 1.15548,-0.53441 1.49729,-0.53496 0.34181,-5.3e-4 1.03167,0.19366 1.53301,0.43156 0.50135,0.23791 1.08489,0.76778 1.29676,1.17749 0.21187,0.40972 0.38522,1.11395 0.38522,1.56497 0,0.45101 -0.18061,1.16928 -0.40135,1.59616 -0.22075,0.42687 -0.75062,0.95674 -1.17749,1.17748 -0.42687,0.22075 -1.10947,0.39381 -1.51687,0.38458 z m 0.0395,-1.83531 c 0.33559,0 0.75241,-0.17139 0.92626,-0.38087 0.17385,-0.20948 0.27773,-0.71331 0.23083,-1.11961 -0.0608,-0.52645 -0.29205,-0.81103 -0.80485,-0.9903 -0.56913,-0.19896 -0.83192,-0.14992 -1.25677,0.23457 -0.29545,0.26738 -0.53718,0.69731 -0.53718,0.9554 0,0.2581 0.1871,0.65636 0.41577,0.88504 0.22868,0.22867 0.69035,0.41577 1.02594,0.41577 z m -28.94512,-6.65692 c 3.42703,0.0233 7.83234,-0.0802 9.78958,-0.22992 1.95724,-0.14974 4.92784,-0.45295 6.60133,-0.67381 1.67349,-0.22085 4.52109,-0.70337 6.32801,-1.07227 1.80692,-0.3689 4.12864,-0.97353 5.15938,-1.34362 1.03074,-0.37009 2.54364,-1.00933 3.36201,-1.42053 0.81837,-0.41121 1.86017,-1.11987 2.31511,-1.57481 0.45493,-0.45493 0.82715,-0.93444 0.82715,-1.06556 0,-0.13112 -0.55263,0.11207 -1.22808,0.54042 -0.67544,0.42836 -2.07442,1.13076 -3.10885,1.56091 -1.03442,0.43014 -3.0714,1.08532 -4.52661,1.45595 -1.45521,0.37064 -4.05477,0.91481 -5.77681,1.20929 -1.72203,0.29447 -4.93672,0.73481 -7.14375,0.97852 -2.8243,0.31188 -6.32446,0.44471 -11.81798,0.44849 -4.37416,0.003 -9.20089,-0.13895 -10.98021,-0.32293 -1.74625,-0.18057 -4.7688,-0.56068 -6.71678,-0.8447 -1.94798,-0.28402 -4.80548,-0.82517 -6.35,-1.20255 -1.54452,-0.37738 -3.70762,-1.03123 -4.80689,-1.453 -1.09927,-0.42177 -2.67685,-1.17522 -3.50573,-1.67435 -0.82888,-0.49913 -1.50705,-0.78536 -1.50705,-0.63608 0,0.14928 0.38059,0.62694 0.84575,1.06147 0.46517,0.43453 1.50697,1.12045 2.31511,1.52426 0.80814,0.40382 2.42184,1.0429 3.58601,1.42018 1.16417,0.37729 2.83104,0.86403 3.70417,1.08164 0.87312,0.21762 3.01625,0.63455 4.7625,0.92652 1.74625,0.29196 4.66328,0.6566 6.48229,0.81031 1.81901,0.1537 3.72401,0.31869 4.23333,0.36664 0.50932,0.048 3.72998,0.10624 7.15701,0.12953 z m 2.50028,-3.01041 c 3.78354,-0.0582 8.48651,-0.28251 10.45104,-0.49837 1.96454,-0.21587 4.7625,-0.57383 6.21771,-0.79548 1.45521,-0.22164 3.83646,-0.71016 5.29167,-1.08561 1.45521,-0.37544 3.27124,-0.91258 4.03562,-1.19364 0.76439,-0.28106 2.08795,-0.86345 2.94125,-1.29419 0.8533,-0.43075 1.865,-1.1558 2.24823,-1.61124 0.42226,-0.50183 0.69677,-1.14881 0.69677,-1.64216 0,-0.61447 -0.26724,-1.06081 -1.0898,-1.8202 -0.59939,-0.55335 -1.9455,-1.36232 -2.99134,-1.79771 -1.04585,-0.43539 -2.94012,-1.09258 -4.2095,-1.46043 -1.26938,-0.36785 -4.00116,-0.96427 -6.07063,-1.32537 -2.06948,-0.3611 -5.01284,-0.81045 -6.54081,-0.99855 -1.83311,-0.22567 -6.24316,-0.34188 -12.96458,-0.34162 -8.33141,3.1e-4 -10.86102,0.0883 -13.89063,0.48341 -2.03729,0.26567 -5.19244,0.77721 -7.01145,1.13676 -1.81901,0.35955 -4.55056,1.0691 -6.07011,1.57677 -1.51955,0.50768 -3.39156,1.28278 -4.16004,1.72246 -0.76848,0.43968 -1.63857,1.10623 -1.93354,1.48122 -0.29497,0.375 -0.53631,1.05912 -0.53631,1.52027 0,0.60171 0.24279,1.0695 0.85989,1.65673 0.47294,0.45005 1.57427,1.17112 2.4474,1.60239 0.87312,0.43127 2.3614,1.03606 3.30729,1.34397 0.94588,0.30792 2.96995,0.86098 4.49792,1.22902 1.52796,0.36804 4.62359,0.90855 6.87916,1.20114 2.25558,0.29259 5.58933,0.64096 7.40834,0.77415 1.81901,0.13319 6.40291,0.19452 10.18645,0.13628 z"
       id="path1740"
       inkscape:export-filename="db.svg"
       inkscape:export-xdpi="96"
       inkscape:export-ydpi="96" /></g></svg>
