<?xml version="1.0" encoding="UTF-8" standalone="no"?>
<!-- Created with Inkscape (http://www.inkscape.org/) -->

<svg
   width="67.73333mm"
   height="50.692116mm"
   viewBox="0 0 67.73333 50.692116"
   version="1.1"
   id="svg5"
   xml:space="preserve"
   inkscape:version="1.2.2 (b0a8486541, 2022-12-01)"
   sodipodi:docname="paper.svg"
   xmlns:inkscape="http://www.inkscape.org/namespaces/inkscape"
   xmlns:sodipodi="http://sodipodi.sourceforge.net/DTD/sodipodi-0.dtd"
   xmlns="http://www.w3.org/2000/svg"
   xmlns:svg="http://www.w3.org/2000/svg"><sodipodi:namedview
     id="namedview7"
     pagecolor="#ffffff"
     bordercolor="#000000"
     borderopacity="0.25"
     inkscape:showpageshadow="2"
     inkscape:pageopacity="0.0"
     inkscape:pagecheckerboard="0"
     inkscape:deskcolor="#d1d1d1"
     inkscape:document-units="mm"
     showgrid="false"
     inkscape:zoom="0.79909512"
     inkscape:cx="234.6404"
     inkscape:cy="661.99879"
     inkscape:window-width="1916"
     inkscape:window-height="1041"
     inkscape:window-x="0"
     inkscape:window-y="18"
     inkscape:window-maximized="1"
     inkscape:current-layer="layer1" /><defs
     id="defs2" /><g
     inkscape:label="Layer 1"
     inkscape:groupmode="layer"
     id="layer1"
     transform="translate(-80.988565,-121.16808)"><path
       style="fill:#ffffff;fill-opacity:1;stroke-width:0.264583"
       d="m 104.93336,171.84042 c -2.0373,0.0542 -4.44835,-0.007 -5.357896,-0.13551 -0.90955,-0.12867 -2.56969,-0.48524 -3.689195,-0.79238 -1.119505,-0.30713 -2.994703,-1.05161 -4.167104,-1.6544 -1.589688,-0.81734 -2.710321,-1.67164 -4.407751,-3.36021 -1.899824,-1.8899 -2.479827,-2.67976 -3.508348,-4.77776 -0.67773,-1.38245 -1.461354,-3.42472 -1.741388,-4.53838 -0.280034,-1.11365 -0.636043,-3.16279 -0.791132,-4.55363 -0.155088,-1.39084 -0.281978,-2.95022 -0.281978,-3.46528 0,-0.58369 0.199342,-1.13581 0.529167,-1.46563 0.327579,-0.32758 0.881944,-0.52917 1.455208,-0.52917 0.926042,0 0.926042,0 0.926042,-3.79545 0,-3.34095 0.05794,-3.84789 0.483854,-4.23333 0.402317,-0.36409 1.1157,-0.43788 4.233333,-0.43788 3.749479,0 3.749479,0 3.749479,-3.79546 0,-3.34095 0.05794,-3.84788 0.483854,-4.23333 0.427726,-0.38709 1.409872,-0.43788 8.466665,-0.43788 7.98281,0 7.98281,0 7.98281,-3.79545 0,-3.34095 0.0579,-3.84789 0.48385,-4.23333 0.41147,-0.37238 1.1772,-0.43789 5.11837,-0.43789 4.15383,0 4.67993,0.0502 5.0724,0.48386 0.38709,0.42772 0.43788,1.40987 0.43788,8.46666 0,7.98282 0,7.98282 3.79545,7.98282 3.34096,0 3.84789,0.0579 4.23333,0.48385 0.3641,0.40232 0.43789,1.1157 0.43789,4.23333 0,3.74948 0,3.74948 1.02594,3.74948 0.56426,0 1.16085,-0.16257 1.32576,-0.36128 0.17727,-0.21359 0.32598,-1.64669 0.36378,-3.50572 0.0572,-2.81375 0.14171,-3.31066 0.80326,-4.72478 0.40662,-0.86918 0.93079,-1.79191 1.16483,-2.05052 0.23404,-0.25861 0.71267,-0.4702 1.06363,-0.4702 0.35096,0 1.04741,0.3122 1.54767,0.69376 0.50026,0.38157 1.33872,1.27839 1.86325,1.99294 0.52453,0.71455 1.16868,1.86088 1.43145,2.54739 0.43411,1.13416 0.54877,1.24109 1.25497,1.17037 0.42747,-0.0428 1.61242,0.0963 2.63323,0.30916 1.02081,0.21285 2.57125,0.74803 3.44541,1.18931 0.87417,0.44128 1.66391,0.9965 1.75498,1.23384 0.0911,0.23733 0.16559,0.59358 0.16559,0.79167 0,0.19808 -0.68461,1.10096 -1.52136,2.00638 -0.83674,0.90544 -2.14688,2.04726 -2.91141,2.5374 -0.76454,0.49013 -2.40141,1.22079 -3.63751,1.62367 -2.24744,0.73251 -2.24744,0.73251 -3.68642,2.8355 -0.79144,1.15664 -2.13616,2.90913 -2.98828,3.89441 -0.8521,0.98529 -2.43722,2.57471 -3.52247,3.53204 -1.08525,0.95734 -3.11093,2.49957 -4.5015,3.42719 -1.39059,0.92762 -3.53759,2.15953 -4.77113,2.73759 -1.23354,0.57806 -3.31048,1.40746 -4.61543,1.84312 -1.30494,0.43565 -3.62277,1.04603 -5.15074,1.35638 -1.77689,0.36092 -4.11312,0.59976 -6.48229,0.66273 z m -1.68168,-2.55296 c 0.6758,0.0191 2.46174,-0.0873 3.96875,-0.23657 1.507,-0.14924 3.99017,-0.57938 5.51813,-0.95587 1.52797,-0.37648 3.64582,-1.02884 4.70633,-1.44967 1.06051,-0.42083 2.61673,-1.11271 3.45826,-1.53752 0.84153,-0.4248 2.65275,-1.52094 4.02492,-2.43585 1.47605,-0.98418 3.63423,-2.8022 5.28491,-4.45193 1.83855,-1.83749 3.41232,-3.73587 4.61473,-5.56656 1.00358,-1.52797 1.85471,-2.82102 1.8914,-2.87345 0.0367,-0.0524 0.84693,-0.25888 1.80053,-0.45877 0.95361,-0.19989 2.41883,-0.71329 3.25606,-1.14089 0.83723,-0.4276 1.92928,-1.12276 2.42677,-1.5448 0.49749,-0.42204 0.82798,-0.8912 0.73442,-1.04259 -0.0936,-0.15139 -0.71349,-0.42738 -1.37761,-0.61333 -0.8029,-0.22479 -1.90161,-0.28019 -3.279,-0.16532 -1.52476,0.12716 -2.14146,0.0846 -2.33654,-0.16123 -0.14578,-0.1837 -0.41319,-0.96582 -0.59426,-1.73805 -0.18107,-0.77223 -0.70268,-1.95613 -1.15913,-2.63088 -0.45645,-0.67475 -0.94429,-1.21247 -1.08409,-1.19493 -0.1398,0.0175 -0.41101,0.48489 -0.60269,1.03855 -0.22154,0.6399 -0.32277,1.97236 -0.27784,3.65732 0.0601,2.25572 -0.008,2.78151 -0.45565,3.52883 -0.28947,0.483 -0.94303,1.13784 -1.45235,1.45521 -0.92604,0.57704 -0.92604,0.57704 -24.71112,0.65133 -23.785074,0.0743 -23.785074,0.0743 -23.622624,2.24896 0.08935,1.19606 0.355933,2.94857 0.592413,3.89446 0.23648,0.94588 0.963769,2.83428 1.616197,4.19644 0.923785,1.9287 1.576909,2.8659 2.95204,4.23604 1.083374,1.07944 2.481583,2.1324 3.61789,2.72456 1.018646,0.53085 2.706788,1.22326 3.75143,1.53868 1.044638,0.31543 2.711518,0.66791 3.704164,0.78329 0.99265,0.11537 2.35775,0.22542 3.03356,0.24454 z m -7.929172,-8.69647 c -0.746861,0 -1.296734,-0.19569 -1.844114,-0.65628 -0.428967,-0.36095 -0.853327,-1.0232 -0.943018,-1.47166 -0.09595,-0.47977 -0.005,-1.1937 0.220951,-1.7345 0.264618,-0.63331 0.683464,-1.04422 1.347002,-1.32146 0.570407,-0.23833 1.272463,-0.33438 1.722162,-0.23561 0.417555,0.0917 1.060064,0.52431 1.4278,0.96134 0.459563,0.54617 0.668613,1.1104 0.668613,1.80465 0,0.74943 -0.19807,1.22209 -0.767614,1.83179 -0.612625,0.65581 -0.98248,0.82173 -1.831782,0.82173 z m -5.867273,-14.02292 c 2.928318,0 2.928318,0 2.853222,-2.84427 -0.0751,-2.84427 -0.0751,-2.84427 -2.853222,-2.84427 -2.778125,0 -2.778125,0 -2.853223,2.84427 -0.0751,2.84427 -0.0751,2.84427 2.853223,2.84427 z m 8.466669,0 c 2.910406,0 2.910406,0 2.910406,-2.77812 0,-2.77813 0,-2.77813 -2.910406,-2.77813 -2.910419,0 -2.910419,0 -2.910419,2.77813 0,2.77812 0,2.77812 2.910419,2.77812 z m 8.466656,0 c 2.91042,0 2.91042,0 2.91042,-2.77812 0,-2.77813 0,-2.77813 -2.91042,-2.77813 -2.91041,0 -2.91041,0 -2.91041,2.77813 0,2.77812 0,2.77812 2.91041,2.77812 z m 8.46667,0 c 2.91042,0 2.91042,0 2.91042,-2.77812 0,-2.77813 0,-2.77813 -2.91042,-2.77813 -2.91042,0 -2.91042,0 -2.91042,2.77813 0,2.77812 0,2.77812 2.91042,2.77812 z m 8.46667,0 c 2.92832,0 2.92832,0 2.85322,-2.84427 -0.0751,-2.84427 -0.0751,-2.84427 -2.85322,-2.84427 -2.77813,0 -2.77813,0 -2.85322,2.84427 -0.0751,2.84427 -0.0751,2.84427 2.85322,2.84427 z m -25.399996,-8.46666 c 2.928316,0 2.928316,0 2.853216,-2.84427 -0.0751,-2.84428 -0.0751,-2.84428 -2.853216,-2.84428 -2.778128,0 -2.778128,0 -2.853224,2.84428 -0.0751,2.84427 -0.0751,2.84427 2.853224,2.84427 z m 8.466656,0 c 2.92832,0 2.92832,0 2.85323,-2.84427 -0.0751,-2.84428 -0.0751,-2.84428 -2.85323,-2.84428 -2.77812,0 -2.77812,0 -2.85322,2.84428 -0.0751,2.84427 -0.0751,2.84427 2.85322,2.84427 z m 8.46667,0 c 2.91042,0 2.91042,0 2.91042,-2.77813 0,-2.77812 0,-2.77812 -2.91042,-2.77812 -2.91042,0 -2.91042,0 -2.91042,2.77812 0,2.77813 0,2.77813 2.91042,2.77813 z m 0,-8.46667 c 2.92832,0 2.92832,0 2.85322,-2.84427 -0.0751,-2.84427 -0.0751,-2.84427 -2.85322,-2.84427 -2.77812,0 -2.77812,0 -2.85322,2.84427 -0.0751,2.84427 -0.0751,2.84427 2.85322,2.84427 z"
       id="path1796" /></g></svg>
