<?xml version="1.0" encoding="UTF-8" standalone="no"?>
<!-- Created with Inkscape (http://www.inkscape.org/) -->

<svg
   width="115.09374mm"
   height="126.9401mm"
   viewBox="0 0 115.09374 126.9401"
   version="1.1"
   id="svg5"
   xml:space="preserve"
   xmlns="http://www.w3.org/2000/svg"
   xmlns:svg="http://www.w3.org/2000/svg"><defs
     id="defs2" /><g
     id="layer1"
     transform="translate(-90.797281,-6.5996926)"><path
       style="fill:#ffffff;fill-opacity:1;stroke-width:0.264583"
       d="m 91.723271,133.28475 c -0.29104,-0.16571 -0.61664,-0.43053 -0.72355,-0.58848 -0.10692,-0.15796 -0.19621,-26.02983 -0.19844,-57.493043 l -0.004,-57.205835 0.57905,-0.53947 c 0.55835,-0.52019 0.88949,-0.53948 9.260419,-0.53948 h 8.68136 v -4.611 -4.6110095 l 0.69714,-0.54837 0.69714,-0.54837 h 39.04709 39.04708 l 8.54224,8.5273595 8.54223,8.52736 v 49.264895 49.264903 l -0.69714,0.54837 c -0.67266,0.52911 -0.99781,0.54837 -9.26042,0.54837 h -8.56327 v 4.4686 c 0,4.00549 -0.0524,4.53334 -0.50578,5.09323 l -0.50578,0.62462 -47.05307,0.0593 c -34.80119,0.0439 -47.190869,-0.0191 -47.582249,-0.24198 z m 91.678129,-6.8288 v -3.175 h -36.34453 -36.34453 l -0.69646,-0.54784 -0.69646,-0.54784 -0.0668,-50.582893 -0.0668,-50.582885 -7.2099,-0.0704 -7.209899,-0.0704 v 54.376125 54.376133 h 44.317709 44.31771 z M 201.92223,72.284247 V 25.256302 l -7.34042,-7.34393 -7.34041,-7.34393 H 150.2641 113.28681 V 64.940317 119.3122 h 44.31771 44.31771 z m -74.60219,26.86972 c -0.7349,-0.78881 -0.68863,-1.94167 0.10995,-2.74026 l 0.64943,-0.64943 h 29.26163 c 25.16407,0 29.36644,0.0542 30.01017,0.38709 1.21502,0.62831 1.4208,1.75063 0.52889,2.88452 l -0.54837,0.69714 h -29.73612 -29.73611 z m 0.52325,-12.72578 c -1.5143,-0.76618 -1.34734,-2.99389 0.26587,-3.54742 0.69167,-0.23732 8.02072,-0.31295 29.49536,-0.30435 15.71625,0.006 28.86192,0.0917 29.21261,0.1898 1.69593,0.47442 2.04874,2.67972 0.56858,3.55407 -0.70067,0.41389 -2.98062,0.44786 -29.82201,0.44426 -22.7997,-0.003 -29.20496,-0.0755 -29.72041,-0.33636 z m -0.4133,-13.53834 c -0.35718,-0.35719 -0.64943,-0.95792 -0.64943,-1.33495 0,-0.37703 0.29225,-0.97775 0.64943,-1.33494 l 0.64943,-0.64943 h 29.5251 29.5251 l 0.64943,0.64943 c 0.35718,0.35719 0.64943,0.95791 0.64943,1.33494 0,0.37703 -0.29225,0.97776 -0.64943,1.33495 l -0.64943,0.64943 h -29.5251 -29.5251 z m -0.0742,-13.1921 c -0.76313,-0.81232 -0.73335,-1.89946 0.0742,-2.70696 l 0.64943,-0.64943 h 29.5251 29.5251 l 0.64943,0.64943 c 0.79367,0.79367 0.8285,1.69739 0.10106,2.62218 l -0.54837,0.69714 h -29.7003 -29.7003 z m -0.0461,-13.145965 c -1.04898,-1.04899 -0.41153,-2.93565 1.11775,-3.30821 0.33112,-0.0807 13.67948,-0.11346 29.66301,-0.0729 l 29.06097,0.0738 0.66295,0.77077 c 0.50914,0.59194 0.62638,0.95365 0.50531,1.559 -0.31555,1.57775 1.50522,1.48912 -30.78134,1.49827 -29.35241,0.008 -29.70566,0.002 -30.22865,-0.52075 z m 0.12365,-13.08147 c -0.83673,-0.83673 -0.85361,-1.98349 -0.0404,-2.74741 l 0.61236,-0.57529 h 29.66323 29.66323 l 0.54837,0.69714 c 0.68366,0.86913 0.69783,1.70548 0.0426,2.5147 l -0.50576,0.62462 -29.66539,0.0695 -29.66539,0.0695 z"
       id="path254" /></g></svg>
